HIERARCHY
ROOT Hips
{
	OFFSET 0.00000 0.00000 0.00000
	CHANNELS 6 Xposition Yposition Zposition Yrotation Zrotation Xrotation 
	JOINT Lumbar
	{
		OFFSET 0 0 0
		CHANNELS 3 Zrotation Xrotation Yrotation
		JOINT Neck
		{
			OFFSET 0.00 0.2701 0.00
			CHANNELS 3 Zrotation Xrotation Yrotation
			End Site
			{
				OFFSET 0.00 0.1379 0.00
			}
		}
		JOINT RightShoulder
		{
			OFFSET 0.0119 0.2289 0.1181
			CHANNELS 3 Zrotation Xrotation Yrotation
			JOINT RightElbow
			{
				OFFSET 0.00 -0.1475 0.00
				CHANNELS 2 Zrotation Yrotation
				JOINT RightWrist
				{
					OFFSET 0.00 -0.1605 0.00
					CHANNELS 2 Zrotation Xrotation
					End Site
					{
						OFFSET 0.0040 -0.1068 0.0006
					}
				}
			}
		}
		JOINT LeftShoulder
		{
			OFFSET 0.0119 0.2289 -0.1181
			CHANNELS 3 Zrotation Xrotation Yrotation
			JOINT LeftElbow
			{
				OFFSET 0.00 -0.1475 0.00
				CHANNELS 2 Zrotation Yrotation
				JOINT LeftWrist
				{
					OFFSET 0.00 -0.1605 0.00
					CHANNELS 2 Zrotation Xrotation
					End Site
					{
						OFFSET 0.0040 -0.1068 -0.0006
					}
				}
			}
		}
	}
	JOINT RightHip
	{
		OFFSET 0.0316 -0.0424 0.0458
		CHANNELS 3 Zrotation Xrotation Yrotation
		JOINT RightKnee
		{
			OFFSET 0.00 -0.2438 0.00
			CHANNELS 1 Zrotation
			JOINT RightAnkle
			{
				OFFSET 0.00 -0.2449 0.00
				CHANNELS 3 Zrotation Xrotation Yrotation
				End Site
				{
					OFFSET 0.1237 -0.0542 0.0051
				}
			}
		}
	}
	JOINT LeftHip
	{
		OFFSET 0.0316 -0.0424 -0.0458
		CHANNELS 3 Zrotation Xrotation Yrotation
		JOINT LeftKnee
		{
			OFFSET 0.00 -0.2438 0.00
			CHANNELS 1 Zrotation
			JOINT LeftAnkle
			{
				OFFSET 0.00 -0.2449 0.00
				CHANNELS 3 Zrotation Xrotation Yrotation
				End Site
				{
					OFFSET 0.1237 -0.0542 -0.0051
				}
			}
		}
	}
}
MOTION
Frames: 16
Frame Time: 0.02
0.32855 -0.09875 -0.14482 741.06848 -6.07791 -4.13612 24.31586 0.47682 6.90049 -19.74618 -0.93511 -0.83079 169.88197 -148.75592 -90.01166 115.6049 68.70883 -79.69835 -22.97463 169.88193 152.46957 90.01163 119.46312 -67.65547 -79.69813 22.97187 77.31396 -7.11973 -2.41216 -90.13266 -5.77772 -2.57888 -1.94788 88.66028 12.66115 -12.16817 -100.72432 -13.27265 2.66153 2.36905
0.32728 -0.0996 -0.14465 741.11749 -5.44059 -4.15043 24.37165 0.54611 6.60053 -19.80739 -0.99922 -0.83079 169.88197 -148.82147 -90.01165 115.10134 68.61846 -79.69831 -22.97412 169.88193 153.02462 90.01163 118.94302 -67.56941 -79.69813 22.97186 77.30087 -7.00117 -2.19936 -89.75396 -5.82329 -2.64828 -1.98348 88.74795 12.49656 -11.91333 -101.24482 -13.4772 2.68264 2.38215
0.3259 -0.10049 -0.14448 741.19794 -4.8162 -4.16849 24.2958 0.64803 6.19795 -19.86034 -1.0942 -0.83079 169.88196 -148.97771 -90.01165 114.78822 68.52234 -79.69826 -22.97349 169.88193 153.58104 90.01163 118.36369 -67.47455 -79.69813 22.97185 77.38776 -6.96235 -2.02536 -89.2605 -5.87335 -2.71887 -2.01729 88.97434 12.28151 -11.66626 -101.86719 -13.73371 2.68564 2.38113
0.32458 -0.10137 -0.14429 741.2651 -4.18317 -4.18694 24.26963 0.73247 5.84016 -19.9282 -1.17031 -0.83079 169.88195 -149.09779 -90.01164 114.3947 68.43068 -79.69822 -22.97296 169.88193 154.12663 90.01163 117.81534 -67.38507 -79.69813 22.97183 77.42527 -6.8979 -1.84882 -88.81348 -5.92273 -2.78313 -2.04834 89.1363 12.08996 -11.41285 -102.45519 -13.96209 2.69528 2.38582
0.3232 -0.10221 -0.14418 741.32728 -3.56289 -4.19542 24.28847 0.82918 5.49121 -19.9505 -1.26907 -0.83079 169.88194 -149.19198 -90.01164 113.97674 68.33038 -79.69817 -22.97226 169.88194 154.71559 90.01163 117.24788 -67.28958 -79.69813 22.97182 77.47973 -6.78806 -1.60729 -88.38485 -5.96655 -2.87217 -2.09446 89.30128 11.89391 -11.16912 -102.98789 -14.21092 2.7116 2.39361
0.32194 -0.10313 -0.14391 741.40772 -2.91956 -4.22556 24.18204 0.90751 5.09978 -20.06604 -1.32704 -0.83079 169.88194 -149.36328 -90.01163 113.65527 68.24701 -79.69813 -22.97187 169.88194 155.2142 90.01163 116.70932 -67.20463 -79.69813 22.97181 77.52193 -6.79056 -1.50918 -87.89269 -6.02301 -2.90997 -2.10905 89.49442 11.69707 -10.90651 -103.66283 -14.42831 2.70999 2.39167
0.32105 -0.10423 -0.14321 741.52943 -2.19949 -4.31977 23.75482 0.92924 4.60743 -20.42945 -1.266 -0.83079 169.88195 -149.72749 -90.01164 113.54231 68.21217 -79.69818 -22.97241 169.88194 155.46595 90.01163 116.23627 -67.15056 -79.69813 22.9718 77.51287 -7.10113 -1.81905 -87.25525 -6.1122 -2.80325 -2.03341 89.72629 11.49778 -10.60766 -104.69318 -14.55455 2.65997 2.36477
0.3203 -0.10539 -0.14236 741.66874 -1.45767 -4.43493 23.20714 0.93088 4.0773 -20.88837 -1.16232 -0.83079 169.88196 -150.16695 -90.01165 113.52172 68.19463 -79.69824 -22.97325 169.88194 155.62625 90.01163 115.80027 -67.10753 -79.69813 22.97178 77.48668 -7.51943 -2.26895 -86.55838 -6.214 -2.6454 -1.9267 89.98288 11.30175 -10.28705 -105.86539 -14.64588 2.59307 2.32878
0.31949 -0.10652 -0.14159 741.8011 -0.73158 -4.53728 22.7187 0.94009 3.56982 -21.31134 -1.07714 -0.83079 169.88197 -150.57052 -90.01165 113.4658 68.16903 -79.6983 -22.97393 169.88194 155.82639 90.01163 115.36525 -67.05967 -79.69813 22.97176 77.46385 -7.87683 -2.64041 -85.88809 -6.31076 -2.51262 -1.83654 90.23201 11.11284 -9.96494 -106.98222 -14.74736 2.53611 2.29797
0.31867 -0.10768 -0.14078 741.93033 0.02013 -4.65347 22.20618 0.95678 3.03532 -21.70428 -0.99689 -0.83079 169.88198 -150.98212 -90.01166 113.38817 68.14399 -79.69836 -22.97473 169.88194 156.03352 90.01163 114.85029 -67.01057 -79.69813 22.97175 77.46346 -8.28585 -3.0733 -85.21512 -6.40512 -2.37198 -1.73611 90.47053 10.88652 -9.69001 -108.06689 -14.87401 2.46917 2.26236
0.31791 -0.10877 -0.14002 742.0696 0.72204 -4.74596 21.71763 0.953 2.54988 -22.18042 -0.89571 -0.83079 169.88198 -151.39646 -90.01167 113.37564 68.12204 -79.69841 -22.97535 169.88194 156.20474 90.01163 114.51475 -66.96701 -79.69812 22.97173 77.41062 -8.61383 -3.41397 -84.53561 -6.50699 -2.23576 -1.64966 90.73456 10.73872 -9.31296 -109.24751 -14.94023 2.41896 2.23464
0.31731 -0.10966 -0.13942 742.23443 1.29594 -4.76602 21.31917 0.89461 2.20633 -22.88083 -0.74794 -0.83079 169.88198 -151.77593 -90.01167 113.51616 68.10408 -79.69842 -22.97547 169.88194 156.29616 90.01163 114.63721 -66.93412 -79.69812 22.97172 77.22038 -8.67396 -3.4388 -83.85008 -6.6301 -2.12259 -1.61006 91.06771 10.8147 -8.64671 -110.68667 -14.8386 2.42159 2.23207
0.31678 -0.11047 -0.13888 742.40818 1.81603 -4.76172 20.95077 0.81666 1.91468 -23.65812 -0.5804 -0.83079 169.88198 -152.15951 -90.01167 113.71919 68.08875 -79.69841 -22.9754 169.88194 156.35543 90.01163 114.94439 -66.90685 -79.69812 22.97171 76.97735 -8.65117 -3.36991 -83.16164 -6.75961 -2.01599 -1.58555 91.42376 10.96857 -7.88054 -112.21134 -14.67824 2.44123 2.23757
0.31622 -0.1113 -0.1383 742.57632 2.35143 -4.76991 20.57277 0.74949 1.6014 -24.38882 -0.42103 -0.83079 169.88198 -152.55663 -90.01167 113.89485 68.07243 -79.69841 -22.9754 169.88194 156.43105 90.01163 115.18612 -66.87832 -79.69812 22.9717 76.75526 -8.67823 -3.36255 -82.47602 -6.88385 -1.90738 -1.55367 91.76596 11.08174 -7.16857 -113.67825 -14.55152 2.45156 2.23877
0.31566 -0.11218 -0.13775 742.75176 2.9272 -4.7733 20.17295 0.67377 1.27774 -25.17306 -0.26303 -0.83079 169.88198 -152.89176 -90.01167 114.06792 68.05575 -79.69842 -22.97547 169.88194 156.49505 90.01163 115.3517 -66.84467 -79.69812 22.97169 76.54348 -8.65999 -3.28386 -81.77958 -7.01862 -1.7926 -1.52269 92.12506 11.21669 -6.4196 -115.23148 -14.39683 2.46807 2.2425
0.31512 -0.11295 -0.13717 742.91378 3.40455 -4.78006 19.82781 0.61134 0.98945 -25.86153 -0.09879 -0.83079 169.88198 -153.35551 -90.01167 114.26196 68.04034 -79.69841 -22.97535 169.88194 156.57816 90.01163 115.7184 -66.82293 -79.69812 22.97169 76.30045 -8.71215 -3.32498 -81.10876 -7.13267 -1.69325 -1.49406 92.4523 11.32558 -5.72316 -116.62147 -14.28369 2.47582 2.24277
